<?xml version="1.0" encoding="iso-8859-1"?>
<!-- Generator: Adobe Illustrator 19.0.0, SVG Export Plug-In . SVG Version: 6.00 Build 0)  -->
<svg version="1.1" id="Capa_1" xmlns="http://www.w3.org/2000/svg" xmlns:xlink="http://www.w3.org/1999/xlink" x="0px" y="0px"
	 viewBox="0 0 496 496" style="enable-background:new 0 0 496 496;" xml:space="preserve">
<g>
	<g>
		<path d="M205.656,18.344L192.968,5.656C189.376,2.064,184.4,0,179.312,0C168.664,0,160,8.664,160,19.312v2.512
			c0,17.12-10.776,32.672-26.8,38.68c-11.712,4.392-21.816,12.648-28.448,23.248l13.56,8.488
			c4.848-7.752,11.936-13.544,20.504-16.752C161.056,67.144,176,45.576,176,21.816v-2.504c0-2.704,3.752-4.248,5.656-2.344
			l12.688,12.688C213.472,48.776,224,74.208,224,101.256V120h16v-18.744C240,69.936,227.808,40.496,205.656,18.344z"/>
	</g>
</g>
<g>
	<g>
		<path d="M181.112,48.44l-4.176-33.432l-15.872,1.984l4.176,33.432c1.464,11.704-2.64,23.664-10.976,32l-18.304,18.304
			c-2.424,2.432-4.648,5.112-6.584,7.976l13.248,8.968c1.368-2.024,2.936-3.912,4.648-5.632l18.304-18.304
			C177.552,81.76,183.216,65.256,181.112,48.44z"/>
	</g>
</g>
<g>
	<g>
		<path d="M421.592,304h-27.184C353.376,304,320,337.376,320,378.408c0,15.832,4.92,30.968,14.24,43.76l41.88,57.608
			C383.512,489.928,395.432,496,408,496s24.488-6.072,31.888-16.232l41.88-57.592C491.08,409.376,496,394.24,496,378.408
			C496,337.376,462.624,304,421.592,304z M468.824,412.76l-41.88,57.592c-4.4,6.04-11.472,9.648-18.944,9.648
			s-14.544-3.608-18.952-9.64l-41.88-57.608C339.856,402.712,336,390.84,336,378.408C336,346.2,362.2,320,394.408,320h27.184
			C453.8,320,480,346.2,480,378.408C480,390.832,476.144,402.712,468.824,412.76z"/>
	</g>
</g>
<g>
	<g>
		<polygon points="474.344,346.336 455.968,364.696 431.92,340.688 407.936,364.688 383.944,340.68 359.96,364.68 341.664,346.352 
			330.336,357.648 359.96,387.32 383.944,363.32 407.936,387.312 431.936,363.312 455.968,387.304 485.656,357.664 		"/>
	</g>
</g>
<g>
	<g>
		<path d="M382.248,235l-12.496,10C389.256,269.384,400,300.008,400,331.224V336h16v-4.776C416,296.384,404.016,262.208,382.248,235
			z"/>
	</g>
</g>
<g>
	<g>
		<path d="M311.24,259.048c-1.896-7.264-8.008-25.928-24.2-44.576c-8.112-9.352-19.552-19.472-35.328-27.888
			C263.768,179.696,272,166.856,272,152c0-22.056-17.944-40-40-40h-8v16h8c13.232,0,24,10.768,24,24s-10.768,24-24,24h-6.128
			c-0.16-0.048-0.32-0.096-0.48-0.144l0.016-0.032l-1.496-0.808C209.168,167.64,200,152.816,200,136.32
			c0-4.656,0.752-9.256,2.216-13.68l9.064-27.192c3.256-9.768,3.912-20.264,1.984-29.792l-5.328-42.648l-15.872,1.984l5.424,43.224
			c1.48,7.376,1,15.04-1.376,22.168l-9.064,27.192C185.024,123.64,184,129.944,184,136.32c0,12.152,3.736,23.584,10.208,33.168
			c-8.032-0.928-16.552-1.488-25.72-1.488c-0.2,0-0.416,0-0.616,0c-6.416,0.016-12.472,0.344-18.328,0.824
			c-7.144-6.416-12.168-15.944-13.24-25.184c4.904-2.736,9.44-6.056,13.368-10l5.64-5.656L64.048,36.736l-5.656,5.56
			C46.528,53.952,40,70.184,40,88c0,21.104,10.312,39.8,26.112,51.464l-0.856,2.544C64.424,145.264,64,148.624,64,152
			c0,14.976,8.376,27.904,20.6,34.76c-15.976,8.536-27.52,18.824-35.672,28.304c-15.512,18.056-21.656,36.072-23.752,43.856
			C10.456,264.832,0,279.192,0,296l41.496,200h253.016l41.32-198.368L336,296C336,279.344,325.752,265.056,311.24,259.048z M56,88
			c0-10.568,2.968-20.328,8.472-28.208l67.696,67.696C124.208,132.96,114.304,136,104,136C77.528,136,56,114.472,56,88z M80,152
			c0-1.672,0.192-3.256,0.432-4.552C87.736,150.352,95.672,152,104,152c5.824,0,11.544-0.816,17.048-2.248
			c1.544,7.616,4.856,15.04,9.44,21.536c-7,1.264-13.536,2.848-19.632,4.712H104C90.768,176,80,165.232,80,152z M167.912,184
			c0.192,0,0.392,0,0.584,0c89.776,0,117.488,50.952,125.128,72.144c-12.088,0.72-22.768,6.76-29.624,15.88
			c-7.304-9.72-18.928-16.024-32-16.024s-24.696,6.304-32,16.024c-7.304-9.72-18.928-16.024-32-16.024s-24.696,6.304-32,16.024
			c-7.304-9.72-18.928-16.024-32-16.024s-24.696,6.304-32,16.024c-6.76-8.992-17.232-14.992-29.112-15.848
			C50.968,234.648,79.344,184.216,167.912,184z M255.976,295.784L240.8,440H208V296c0-13.232,10.768-24,24-24
			C245.16,272,255.856,282.648,255.976,295.784z M192,296v144h-48V296c0-13.232,10.768-24,24-24S192,282.768,192,296z
			 M16.016,295.232C16.416,282.352,27.024,272,40,272c13.232,0,24,10.768,24,24l11.832,112.832l15.904-1.672l-11.72-111.376
			C80.144,282.648,90.84,272,104,272c13.232,0,24,10.768,24,24v144H95.2l-1.768-16.832l-15.904,1.672L79.12,440H46.176
			L16.016,295.232z M281.488,480H54.504l-5-24h236.984L281.488,480z M289.824,440H256.88l15.072-143.168L271.96,296H272
			c0-13.232,10.768-24,24-24c12.976,0,23.584,10.352,23.984,23.232L289.824,440z"/>
	</g>
</g>
<g>
	<g>
		<rect x="336" y="392" width="16" height="16"/>
	</g>
</g>
<g>
	<g>
		<rect x="376" y="392" width="16" height="16"/>
	</g>
</g>
<g>
	<g>
		<rect x="424" y="392" width="16" height="16"/>
	</g>
</g>
<g>
	<g>
		<rect x="464" y="392" width="16" height="16"/>
	</g>
</g>
<g>
	<g>
		<rect x="440" y="424" width="16" height="16"/>
	</g>
</g>
<g>
	<g>
		<rect x="400" y="424" width="16" height="16"/>
	</g>
</g>
<g>
	<g>
		<rect x="360" y="424" width="16" height="16"/>
	</g>
</g>
<g>
	<g>
		<rect x="400" y="464" width="16" height="16"/>
	</g>
</g>
<g>
</g>
<g>
</g>
<g>
</g>
<g>
</g>
<g>
</g>
<g>
</g>
<g>
</g>
<g>
</g>
<g>
</g>
<g>
</g>
<g>
</g>
<g>
</g>
<g>
</g>
<g>
</g>
<g>
</g>
</svg>
