<?xml version="1.0" encoding="iso-8859-1"?>
<!-- Generator: Adobe Illustrator 19.0.0, SVG Export Plug-In . SVG Version: 6.00 Build 0)  -->
<svg version="1.1" id="Capa_1" xmlns="http://www.w3.org/2000/svg" xmlns:xlink="http://www.w3.org/1999/xlink" x="0px" y="0px"
	 viewBox="0 0 497.52 497.52" style="enable-background:new 0 0 497.52 497.52;" xml:space="preserve">
<g>
	<g>
		<path d="M480.76,241.52c0-37.136-28.256-67.8-64.4-71.6c-2.616-24.824-17.904-45.928-39.248-56.712l-0.768-2.216
			c-15.816-47.464-53.592-85.24-101.056-101.056L245.496,0l-17.088,25.624C218.112,41.08,201.6,51,183.128,52.84
			c-31.936,3.192-58.264,25.2-67.088,56.056l-2.352,8.232c-17.784,11.544-30.192,30.672-32.52,52.8
			c-36.144,3.808-64.408,34.456-64.408,71.592c0,22.328,10.472,43.312,27.84,56.848l-4.744,4.744l42.912,164.512
			c4.6,17.6,20.512,29.896,38.712,29.896h254.544c18.192,0,34.112-12.296,38.712-29.896l42.912-164.512l-4.744-4.744
			C470.288,284.832,480.76,263.848,480.76,241.52z M121.488,481.52c-10.92,0-20.472-7.376-23.224-17.936L57.656,307.936
			l31.104-31.104l32.424,32.424l22.472,172.264H121.488z M159.784,481.52L137.2,308.392l31.56-31.56l32.144,32.144l7.504,172.544
			H159.784z M273.104,481.52h-48.68l-7.512-172.832l31.848-31.856l31.856,31.856L273.104,481.52z M289.112,481.52l7.504-172.544
			l32.144-32.144l31.56,31.56L337.736,481.52H289.112z M399.256,463.584c-2.752,10.56-12.312,17.936-23.224,17.936h-22.168
			l22.472-172.264l32.424-32.424l31.104,31.104L399.256,463.584z M441.44,286.888l-32.68-32.68l-40,40l-40-40l-40,40l-40-40l-40,40
			l-40-40l-40,40l-40-40l-32.68,32.68c-14.472-10.464-23.32-27.328-23.32-45.368c0-28.352,21.208-51.8,48.576-55.448
			c1.6,13.272,6.824,25.984,15.224,36.456l12.488-10.016c-8.04-10.016-12.288-22.12-12.288-34.992c0-30.872,25.128-56,56-56v-16
			c-6.76,0-13.272,1-19.48,2.752c8.296-21.808,27.864-37.152,51.44-39.512c23.256-2.328,44.04-14.816,57-34.264l10.304-15.456
			l18.2,6.064c39.52,13.176,71.544,43.288,87.408,81.6c-4.176-0.76-8.472-1.184-12.872-1.184v16c30.872,0,56,25.128,56,56v8h8
			c30.872,0,56,25.128,56,56C464.76,259.56,455.912,276.424,441.44,286.888z"/>
	</g>
</g>
<g>
	<g>
		<path d="M288.76,57.52c-4.248,0-8.384,1.152-12,3.264c-3.616-2.112-7.752-3.264-12-3.264c-13.232,0-24,10.768-24,24h16
			c0-4.416,3.584-8,8-8c3.088,0,5.072,1.744,5.976,2.784l6.024,6.888l6.024-6.888c0.904-1.04,2.888-2.784,5.976-2.784
			c4.416,0,8,3.584,8,8h16C312.76,68.288,301.992,57.52,288.76,57.52z"/>
	</g>
</g>
<g>
	<g>
		<path d="M184.76,137.52c-4.248,0-8.384,1.152-12,3.264c-3.616-2.112-7.752-3.264-12-3.264c-13.232,0-24,10.768-24,24h16
			c0-4.416,3.584-8,8-8c3.088,0,5.072,1.744,5.976,2.784l6.024,6.888l6.024-6.888c0.904-1.04,2.888-2.784,5.976-2.784
			c4.416,0,8,3.584,8,8h16C208.76,148.288,197.992,137.52,184.76,137.52z"/>
	</g>
</g>
<g>
	<g>
		<path d="M400.76,209.52c-4.248,0-8.384,1.152-12,3.264c-3.616-2.112-7.752-3.264-12-3.264c-13.232,0-24,10.768-24,24h16
			c0-4.416,3.584-8,8-8c3.088,0,5.072,1.744,5.976,2.784l6.024,6.888l6.024-6.888c0.904-1.04,2.888-2.784,5.976-2.784
			c4.416,0,8,3.584,8,8h16C424.76,220.288,413.992,209.52,400.76,209.52z"/>
	</g>
</g>
<g>
	<g>
		<path d="M304.76,121.52c-13.232,0-24,10.768-24,24s10.768,24,24,24s24-10.768,24-24S317.992,121.52,304.76,121.52z M304.76,153.52
			c-4.416,0-8-3.584-8-8s3.584-8,8-8c4.416,0,8,3.584,8,8S309.176,153.52,304.76,153.52z"/>
	</g>
</g>
<g>
	<g>
		<path d="M280.76,209.52c-13.232,0-24,10.768-24,24s10.768,24,24,24s24-10.768,24-24S293.992,209.52,280.76,209.52z M280.76,241.52
			c-4.416,0-8-3.584-8-8s3.584-8,8-8c4.416,0,8,3.584,8,8S285.176,241.52,280.76,241.52z"/>
	</g>
</g>
<g>
	<g>
		<path d="M152.76,193.52c-13.232,0-24,10.768-24,24s10.768,24,24,24s24-10.768,24-24S165.992,193.52,152.76,193.52z M152.76,225.52
			c-4.416,0-8-3.584-8-8s3.584-8,8-8s8,3.584,8,8S157.176,225.52,152.76,225.52z"/>
	</g>
</g>
<g>
	<g>
		<rect x="432.76" y="241.52" width="16" height="16"/>
	</g>
</g>
<g>
	<g>
		<rect x="352.76" y="153.52" width="16" height="16"/>
	</g>
</g>
<g>
	<g>
		<rect x="200.76" y="89.52" width="16" height="16"/>
	</g>
</g>
<g>
	<g>
		<rect x="192.76" y="185.52" width="16" height="16"/>
	</g>
</g>
<g>
	<g>
		<rect x="56.76" y="233.52" width="16" height="16"/>
	</g>
</g>
<g>
</g>
<g>
</g>
<g>
</g>
<g>
</g>
<g>
</g>
<g>
</g>
<g>
</g>
<g>
</g>
<g>
</g>
<g>
</g>
<g>
</g>
<g>
</g>
<g>
</g>
<g>
</g>
<g>
</g>
</svg>
