
1.48k → 1.06k 71.47%
<svg xmlns="http://www.w3.org/2000/svg" viewBox="0 0 497.52 497.52"><path d="M480.76 241.52c0-37.136-28.256-67.8-64.4-71.6-2.616-24.824-17.904-45.928-39.248-56.712l-.768-2.216c-15.816-47.464-53.592-85.24-101.056-101.056L245.496 0l-17.088 25.624C218.112 41.08 201.6 51 183.128 52.84c-31.936 3.192-58.264 25.2-67.088 56.056l-2.352 8.232c-17.784 11.544-30.192 30.672-32.52 52.8-36.144 3.808-64.408 34.456-64.408 71.592 0 22.328 10.472 43.312 27.84 56.848l-4.744 4.744 42.912 164.512c4.6 17.6 20.512 29.896 38.712 29.896h254.544c18.192 0 34.112-12.296 38.712-29.896l42.912-164.512-4.744-4.744c17.384-13.536 27.856-34.52 27.856-56.848zm-359.272 240c-10.92 0-20.472-7.376-23.224-17.936L57.656 307.936l31.104-31.104 32.424 32.424 22.472 172.264h-22.168zm38.296 0L137.2 308.392l31.56-31.56 32.144 32.144 7.504 172.544h-48.624zm113.32 0h-48.68l-7.512-172.832 31.848-31.856 31.856 31.856-7.512 172.832zm16.008 0l7.504-172.544 32.144-32.144 31.56 31.56-22.584 173.128h-48.624zm110.144-17.936c-2.752 10.56-12.312 17.936-23.224 17.936h-22.168l22.472-172.264 32.424-32.424 31.104 31.104-40.608 155.648zm42.184-176.696l-32.68-32.68-40 40-40-40-40 40-40-40-40 40-40-40-40 40-40-40-32.68 32.68c-14.472-10.464-23.32-27.328-23.32-45.368 0-28.352 21.208-51.8 48.576-55.448 1.6 13.272 6.824 25.984 15.224 36.456l12.488-10.016c-8.04-10.016-12.288-22.12-12.288-34.992 0-30.872 25.128-56 56-56v-16c-6.76 0-13.272 1-19.48 2.752 8.296-21.808 27.864-37.152 51.44-39.512 23.256-2.328 44.04-14.816 57-34.264l10.304-15.456 18.2 6.064c39.52 13.176 71.544 43.288 87.408 81.6-4.176-.76-8.472-1.184-12.872-1.184v16c30.872 0 56 25.128 56 56v8h8c30.872 0 56 25.128 56 56 0 18.04-8.848 34.904-23.32 45.368z"/><path d="M288.76 57.52c-4.248 0-8.384 1.152-12 3.264-3.616-2.112-7.752-3.264-12-3.264-13.232 0-24 10.768-24 24h16c0-4.416 3.584-8 8-8 3.088 0 5.072 1.744 5.976 2.784l6.024 6.888 6.024-6.888c.904-1.04 2.888-2.784 5.976-2.784 4.416 0 8 3.584 8 8h16c0-13.232-10.768-24-24-24zM184.76 137.52c-4.248 0-8.384 1.152-12 3.264-3.616-2.112-7.752-3.264-12-3.264-13.232 0-24 10.768-24 24h16c0-4.416 3.584-8 8-8 3.088 0 5.072 1.744 5.976 2.784l6.024 6.888 6.024-6.888c.904-1.04 2.888-2.784 5.976-2.784 4.416 0 8 3.584 8 8h16c0-13.232-10.768-24-24-24zM400.76 209.52c-4.248 0-8.384 1.152-12 3.264-3.616-2.112-7.752-3.264-12-3.264-13.232 0-24 10.768-24 24h16c0-4.416 3.584-8 8-8 3.088 0 5.072 1.744 5.976 2.784l6.024 6.888 6.024-6.888c.904-1.04 2.888-2.784 5.976-2.784 4.416 0 8 3.584 8 8h16c0-13.232-10.768-24-24-24zM304.76 121.52c-13.232 0-24 10.768-24 24s10.768 24 24 24 24-10.768 24-24-10.768-24-24-24zm0 32c-4.416 0-8-3.584-8-8s3.584-8 8-8 8 3.584 8 8-3.584 8-8 8zM280.76 209.52c-13.232 0-24 10.768-24 24s10.768 24 24 24 24-10.768 24-24-10.768-24-24-24zm0 32c-4.416 0-8-3.584-8-8s3.584-8 8-8 8 3.584 8 8-3.584 8-8 8zM152.76 193.52c-13.232 0-24 10.768-24 24s10.768 24 24 24 24-10.768 24-24-10.768-24-24-24zm0 32c-4.416 0-8-3.584-8-8s3.584-8 8-8 8 3.584 8 8-3.584 8-8 8zM432.76 241.52h16v16h-16zM352.76 153.52h16v16h-16zM200.76 89.52h16v16h-16zM192.76 185.52h16v16h-16zM56.76 233.52h16v16h-16z"/></svg>