<svg xmlns="http://www.w3.org/2000/svg" viewBox="0 0 140.23 35.69"><title>tab_border</title><g id="Warstwa_1" data-name="Warstwa 1"><path fill="#ffffff" d="M1.39,18.06c2-2.76,3.65-5.91,6.52-8A24.74,24.74,0,0,1,11.3,8.4V4.15h120V8.71c4.49.71,10.32,7.37,10.32,13.33s-5.83,12.61-10.14,13.28v4.53h-120V35.63A21.34,21.34,0,0,1,7.9,34C5,32,3.44,28.8,1.38,26Zm12,19.83h116V34.44c8-3.17,9.89-7.7,9.9-12.25,0-4.83-1.53-9-10.07-12.68V6.24C114.14,5.57,14,5.87,13.36,6.58v3c-8.45,3.69-9.94,7.84-9.91,12.61,0,6.41,4.11,10,9.89,12.25Z" transform="translate(-1.38 -4.15)"/></g></svg>